<svg width="37" height="36" viewBox="0 0 37 36" fill="none" xmlns="http://www.w3.org/2000/svg">
<path d="M28.886 17.7992H21.8445C20.1942 17.7992 18.8564 16.4613 18.8564 14.811V7.75008C18.8605 6.3571 18.2167 5.04129 17.1143 4.18975C16.0696 3.3625 14.6999 3.06766 13.4075 3.39192C4.62307 5.57251 -0.730429 14.4615 1.45023 23.246C2.98657 29.435 7.97358 34.171 14.2337 35.3859C22.7856 37.0228 31.13 31.7058 33.2592 23.263C33.5847 21.9689 33.2904 20.597 32.4628 19.5502C31.6015 18.4498 30.2835 17.8045 28.886 17.7992Z" fill="#E6E6E6"/>
<path d="M36.2637 10.9952C35.9227 9.72744 35.4147 8.51059 34.7532 7.3766C32.7636 3.96326 29.5134 1.46745 25.7022 0.426176C25.4511 0.358453 24.8894 0.318604 24.8894 0.318604C24.6887 0.318674 23.8242 0.318603 23.1399 0.872925C22.1341 1.66438 21.976 2.56419 21.9611 2.63443C21.9089 2.85476 21.8818 3.08034 21.8804 3.30676V10.3289C21.8804 12.8043 23.8871 14.8111 26.3626 14.8111H33.4131C34.3485 14.8138 35.2289 14.3697 35.7827 13.6158C36.1922 13.0636 36.4029 12.389 36.3803 11.7019C36.3684 11.4627 36.3293 11.2255 36.2637 10.9952Z" fill="#E6E6E6"/>
</svg>
