<svg width="23" height="24" viewBox="0 0 23 24" fill="none" xmlns="http://www.w3.org/2000/svg">
<path d="M18.0234 22.1955H17.9929C17.5209 22.1881 17.072 21.9877 16.7514 21.6412L14.9796 19.9036C14.6249 19.5369 14.6332 18.9522 14.9999 18.5974C15.0009 18.5965 15.0018 18.5956 15.0027 18.5947C15.3694 18.2427 15.9514 18.2529 16.3052 18.6168L18.0244 20.3009L21.1107 17.2145C21.4709 16.8543 22.0566 16.8543 22.4169 17.2145C22.7772 17.5748 22.7772 18.1605 22.4169 18.5208L19.2567 21.681C18.9315 22.0108 18.4872 22.1964 18.0234 22.1955Z" fill="#E6E6E6"/>
<path d="M13.4822 19.4381C13.4785 16.3924 15.944 13.9204 18.9888 13.9158C20.174 13.9139 21.3287 14.2945 22.2802 15.0012C23.918 9.10292 20.464 2.99403 14.5667 1.35618C8.66932 -0.281664 2.56134 3.17139 0.923499 9.06967C-0.714346 14.9679 2.73963 21.0778 8.63698 22.7156C10.5769 23.2542 12.6268 23.2542 14.5667 22.7156C13.8628 21.7678 13.4822 20.6186 13.4822 19.4381ZM12.5261 12.0544C12.5261 12.3001 12.4281 12.5347 12.2545 12.7084L9.47854 15.4853C9.11088 15.84 8.52521 15.8298 8.17048 15.4622C7.82407 15.1037 7.82407 14.5347 8.17048 14.1763L10.6757 11.671V7.4272C10.6757 6.91636 11.0896 6.50158 11.6014 6.50158C12.1122 6.50158 12.5261 6.91636 12.5261 7.4272V12.0544Z" fill="#E6E6E6"/>
</svg>
