<svg width="512" height="513" viewBox="0 0 512 513" fill="none" xmlns="http://www.w3.org/2000/svg">
<path d="M277.333 43.6946V21.38C277.333 9.58263 267.797 0.0466309 256 0.0466309C244.203 0.0466309 234.667 9.58263 234.667 21.38V43.6946C115.221 54.5106 21.3333 155.183 21.3333 277.38C21.3333 335.791 42.7947 389.295 78.2293 430.404C60.1813 439.983 42.6667 458.5 42.6667 490.713C42.6667 502.511 52.2027 512.047 64 512.047C75.7973 512.047 85.3333 502.511 85.3333 490.713C85.3333 469.38 103.637 465.241 109.013 464.495C110.507 464.324 111.957 464.004 113.323 463.556C152.896 493.935 202.368 512.047 255.979 512.047C309.589 512.047 359.125 493.935 398.699 463.513C399.979 463.94 401.323 464.26 402.709 464.452C408.341 465.22 426.645 469.359 426.645 490.692C426.645 502.489 436.181 512.025 447.979 512.025C459.776 512.025 469.312 502.489 469.312 490.692C469.312 458.479 451.797 439.961 433.749 430.383C469.184 389.273 490.645 335.769 490.645 277.359C490.645 155.161 396.757 54.4893 277.312 43.6733L277.333 43.6946ZM64 277.38C64 171.503 150.123 85.38 256 85.38C361.877 85.38 448 171.503 448 277.38C448 383.257 361.877 469.38 256 469.38C150.123 469.38 64 383.257 64 277.38ZM512 96.0466C512 107.844 502.464 117.38 490.667 117.38C478.869 117.38 469.333 107.844 469.333 96.0466C469.333 70.1906 448.491 42.7133 409.92 42.7133C398.123 42.7133 388.587 33.1773 388.587 21.38C388.587 9.58263 398.123 0.0466309 409.92 0.0466309C467.179 0.0466309 512 42.2226 512 96.0466ZM21.3333 117.38C9.536 117.38 0 107.844 0 96.0466C0 42.2226 44.8427 0.0466309 102.08 0.0466309C113.877 0.0466309 123.413 9.58263 123.413 21.38C123.413 33.1773 113.877 42.7133 102.08 42.7133C63.488 42.7133 42.6667 70.1906 42.6667 96.0466C42.6667 107.844 33.1307 117.38 21.3333 117.38ZM277.333 149.38V298.713C277.333 310.511 267.797 320.047 256 320.047C244.203 320.047 234.667 310.511 234.667 298.713V149.38C234.667 137.583 244.203 128.047 256 128.047C267.797 128.047 277.333 137.583 277.333 149.38ZM288 394.713C288 412.377 273.664 426.713 256 426.713C238.336 426.713 224 412.377 224 394.713C224 377.049 238.336 362.713 256 362.713C273.664 362.713 288 377.049 288 394.713Z" fill="#E6E6E6"/>
</svg>
