<svg width="39" height="38" viewBox="0 0 39 38" fill="none" xmlns="http://www.w3.org/2000/svg">
<path d="M25.5427 37.8545V28.2681C25.5427 26.7427 24.9367 25.2797 23.858 24.201C22.7793 23.1223 21.3163 22.5163 19.7909 22.5163C18.2654 22.5163 16.8024 23.1223 15.7237 24.201C14.645 25.2797 14.039 26.7427 14.039 28.2681V37.8545H4.45265C3.43567 37.8545 2.46033 37.4505 1.74122 36.7314C1.0221 36.0123 0.618103 35.037 0.618103 34.02V13.183C0.618097 12.5208 0.789566 11.87 1.11581 11.2937C1.44206 10.7175 1.91197 10.2356 2.47978 9.89489L17.818 0.691968C18.4139 0.334393 19.0959 0.145508 19.7909 0.145508C20.4858 0.145508 21.1678 0.334393 21.7637 0.691968L37.1019 9.89489C37.6697 10.2356 38.1396 10.7175 38.4659 11.2937C38.7921 11.87 38.9636 12.5208 38.9636 13.183V34.02C38.9636 35.037 38.5596 36.0123 37.8405 36.7314C37.1214 37.4505 36.146 37.8545 35.1291 37.8545H25.5427Z" fill="#E6E6E6"/>
</svg>
