<svg width="16" height="21" viewBox="0 0 16 21" fill="none" xmlns="http://www.w3.org/2000/svg">
<path d="M3.74558 0.10376C2.97474 0.10376 2.23547 0.409977 1.6904 0.955046C1.14533 1.50012 0.839111 2.23939 0.839111 3.01023V17.1274C0.839111 17.8982 1.14533 18.6375 1.6904 19.1826C2.23547 19.7276 2.97474 20.0339 3.74558 20.0339C4.51643 20.0339 5.2557 19.7276 5.80077 19.1826C6.34584 18.6375 6.65206 17.8982 6.65206 17.1274V3.01023C6.65206 2.23939 6.34584 1.50012 5.80077 0.955046C5.2557 0.409977 4.51643 0.10376 3.74558 0.10376Z" fill="#E6E6E6"/>
<path d="M12.8802 0.10376C12.1094 0.10376 11.3701 0.409977 10.825 0.955046C10.28 1.50012 9.97375 2.23939 9.97375 3.01023V17.1274C9.97375 17.8982 10.28 18.6375 10.825 19.1826C11.3701 19.7276 12.1094 20.0339 12.8802 20.0339C13.6511 20.0339 14.3903 19.7276 14.9354 19.1826C15.4805 18.6375 15.7867 17.8982 15.7867 17.1274V3.01023C15.7867 2.23939 15.4805 1.50012 14.9354 0.955046C14.3903 0.409977 13.6511 0.10376 12.8802 0.10376Z" fill="#E6E6E6"/>
</svg>
