<svg width="418" height="512" viewBox="0 0 418 512" fill="none" xmlns="http://www.w3.org/2000/svg">
<path d="M374.082 169.853L170.605 20.6474C154.712 9.00975 135.907 2.00021 116.275 0.395738C96.642 -1.20873 76.9484 2.65455 59.377 11.5574C41.8055 20.4602 27.0425 34.0548 16.7243 50.8342C6.40613 67.6137 0.935801 86.9226 0.919692 106.621V405.181C0.889047 424.898 6.33078 444.237 16.6391 461.045C26.9475 477.854 41.7181 491.471 59.3068 500.383C76.8954 509.294 96.6121 513.15 116.262 511.521C135.912 509.891 154.724 502.841 170.605 491.154L374.082 341.949C387.584 332.04 398.563 319.092 406.13 304.153C413.697 289.213 417.64 272.701 417.64 255.954C417.64 239.207 413.697 222.695 406.13 207.756C398.563 192.816 387.584 179.868 374.082 169.959V169.853Z" fill="#E6E6E6"/>
</svg>
