<svg width="21" height="20" viewBox="0 0 21 20" fill="none" xmlns="http://www.w3.org/2000/svg">
<path d="M11.143 2.5V0.833333C11.143 0.61232 11.2308 0.400358 11.3871 0.244078C11.5433 0.0877974 11.7553 0 11.9763 0C12.1973 0 12.4093 0.0877974 12.5656 0.244078C12.7219 0.400358 12.8097 0.61232 12.8097 0.833333V2.5C12.8097 2.72101 12.7219 2.93298 12.5656 3.08926C12.4093 3.24554 12.1973 3.33333 11.9763 3.33333C11.7553 3.33333 11.5433 3.24554 11.3871 3.08926C11.2308 2.93298 11.143 2.72101 11.143 2.5ZM8.64299 3.33333C8.864 3.33333 9.07596 3.24554 9.23224 3.08926C9.38852 2.93298 9.47632 2.72101 9.47632 2.5V0.833333C9.47632 0.61232 9.38852 0.400358 9.23224 0.244078C9.07596 0.0877974 8.864 0 8.64299 0C8.42197 0 8.21001 0.0877974 8.05373 0.244078C7.89745 0.400358 7.80965 0.61232 7.80965 0.833333V2.5C7.80965 2.72101 7.89745 2.93298 8.05373 3.08926C8.21001 3.24554 8.42197 3.33333 8.64299 3.33333ZM5.30965 3.33333C5.53067 3.33333 5.74263 3.24554 5.89891 3.08926C6.05519 2.93298 6.14299 2.72101 6.14299 2.5V0.833333C6.14299 0.61232 6.05519 0.400358 5.89891 0.244078C5.74263 0.0877974 5.53067 0 5.30965 0C5.08864 0 4.87668 0.0877974 4.7204 0.244078C4.56412 0.400358 4.47632 0.61232 4.47632 0.833333V2.5C4.47632 2.72101 4.56412 2.93298 4.7204 3.08926C4.87668 3.24554 5.08864 3.33333 5.30965 3.33333ZM20.2888 10.9525C20.2615 11.8169 19.8978 12.6365 19.2752 13.2369C18.6526 13.8372 17.8203 14.1708 16.9555 14.1667H14.893C14.3623 14.9445 13.648 15.5796 12.8134 16.0156C11.9788 16.4517 11.0496 16.6753 10.108 16.6667H7.13548C6.17798 16.6762 5.23334 16.4457 4.38786 15.9962C3.54238 15.5467 2.82302 14.8925 2.29549 14.0933C1.11549 12.2108 -1.75535 5.30917 2.78882 5H14.4555C14.8529 5.01079 15.2425 5.11316 15.5938 5.29914C15.9452 5.48511 16.2489 5.74968 16.4813 6.07224C16.7137 6.3948 16.8686 6.76664 16.9337 7.15882C16.9989 7.551 16.9727 7.95294 16.8572 8.33333C18.9163 8.33333 20.2888 9.3375 20.2888 10.9525ZM18.6222 10.9525C18.6955 10.18 17.5805 9.9325 16.5738 10C16.3876 10.8564 16.1214 11.6934 15.7788 12.5H16.9555C17.3785 12.5043 17.7871 12.3462 18.0972 12.0583C18.4072 11.7705 18.5951 11.3747 18.6222 10.9525ZM16.1222 18.3333H1.12215C0.901138 18.3333 0.689176 18.4211 0.532896 18.5774C0.376616 18.7337 0.288818 18.9457 0.288818 19.1667C0.288818 19.3877 0.376616 19.5996 0.532896 19.7559C0.689176 19.9122 0.901138 20 1.12215 20H16.1222C16.3432 20 16.5551 19.9122 16.7114 19.7559C16.8677 19.5996 16.9555 19.3877 16.9555 19.1667C16.9555 18.9457 16.8677 18.7337 16.7114 18.5774C16.5551 18.4211 16.3432 18.3333 16.1222 18.3333Z" fill="#E6E6E6"/>
</svg>
